# xmcd
#
# Track frame offsets: 
#        150
#        27213
#        47495
#        64670
#        92593
#        114208
#        128700
#        145375
#        162095
#
# Disc length: 2478 seconds
#
# Revision: 0
# Processed by: cddbd v1.5.2PL0 Copyright (c) Steve Scherf et al.
# Submitted via: ExactAudioCopyFreeDBPlugin 1.0
#
DISCID=6b09ac09
DTITLE=稲葉喜美子 - 燃えてそうろう
DYEAR=1983
DGENRE=Pop
TTITLE0=唄人(うたうたい)
TTITLE1=男のひとは
TTITLE2=ヨコハマ
TTITLE3=皐月煩(さつきやまひ)
TTITLE4=あなたへ
TTITLE5=与(く)みしやすい女
TTITLE6=ちょっと待って
TTITLE7=オワリノトキ
TTITLE8=挽歌
EXTD=
EXTT0=
EXTT1=
EXTT2=
EXTT3=
EXTT4=
EXTT5=
EXTT6=
EXTT7=
EXTT8=
PLAYORDER=
